<svg width="44" height="44" viewBox="0 0 44 44" fill="none" xmlns="http://www.w3.org/2000/svg">
<circle cx="22" cy="22" r="22" fill="#F5F5F0"/>
<circle cx="22" cy="22" r="21" stroke="#F66362" stroke-opacity="0.4" stroke-width="2"/>
<g clip-path="url(#clip0)">
<path opacity="0.8" d="M18.5902 20.9557L23.32 16.226C23.6209 15.925 24.1087 15.925 24.4094 16.226C24.7102 16.5268 24.7102 17.0146 24.4094 17.3153L20.2243 21.5003L24.4093 25.6852C24.7101 25.9861 24.7101 26.4738 24.4093 26.7746C24.1086 27.0755 23.6208 27.0755 23.3199 26.7746L18.5901 22.0448C18.4397 21.8944 18.3646 21.6974 18.3646 21.5003C18.3646 21.3032 18.4398 21.1061 18.5902 20.9557Z" fill="#F66362"/>
</g>
<defs>
<clipPath id="clip0">
<rect x="27" y="27" width="11" height="11" transform="rotate(180 27 27)" fill="white"/>
</clipPath>
</defs>
</svg>
