<svg width="86" height="40" viewBox="0 0 86 40" fill="none" xmlns="http://www.w3.org/2000/svg">
<path d="M16.0026 23.8535V23.7959H15.946L15.6444 23.7383L16.0026 23.8535Z" fill="white"/>
<path d="M33.3237 33.2983C33.6819 33.2983 34.0022 33.452 34.2094 33.7794L34.7373 33.452C34.417 32.9137 33.9456 32.6636 33.3237 32.6636C32.8902 32.6636 32.5325 32.76 32.2687 33.0291C31.9105 33.2983 31.7408 33.6257 31.7408 34.049C31.7408 34.626 32.1747 35.0493 32.9472 35.4335L33.3241 35.5876C33.8895 35.8568 34.2098 36.1837 34.2098 36.607L33.9461 37.3573L33.211 37.6651L32.4759 37.415L32.2117 36.6648L31.5332 36.8185C31.5898 37.2609 31.7404 37.626 32.0607 37.8956C32.3814 38.1453 32.7396 38.3189 33.154 38.3189C33.6249 38.3189 34.0397 38.1457 34.417 37.8379L34.8879 36.607C34.8879 35.9146 34.4731 35.3758 33.5683 35.0102L33.1535 34.8374C32.6822 34.626 32.418 34.3568 32.418 34.049C32.418 33.8375 32.5316 33.6643 32.7388 33.5106L33.3237 33.2983Z" fill="black"/>
<path d="M37.0753 33.3937H38.3375V32.7589H35.0959V33.3937H36.3964V38.2028H37.0753V33.3937Z" fill="black"/>
<path d="M42.6737 36.2409V32.7589H41.9948V35.9713C41.9948 37.0866 41.5613 37.6636 40.6943 37.6636C39.8461 37.6636 39.4313 37.0866 39.4313 35.9713V32.7589H38.7528V36.2409C38.7528 36.8179 38.9034 37.3562 39.2803 37.7413C39.6385 38.1069 40.1094 38.3183 40.6939 38.3183C41.3158 38.3183 41.7868 38.1069 42.1449 37.7413C42.5036 37.3562 42.6737 36.8179 42.6737 36.2409Z" fill="black"/>
<path d="M44.6702 32.7589H43.5208V38.2028H44.6136L44.463 37.5677H44.1993V33.3937H44.463C46.1216 33.3937 46.9703 34.1057 46.9703 35.4906C46.9703 36.8752 46.1221 37.5677 44.463 37.5677L44.6136 38.2028C45.4993 38.2028 46.2348 37.991 46.7436 37.5099C47.3277 37.0293 47.6484 36.3368 47.6484 35.4325C47.6484 34.5672 47.3277 33.8743 46.7436 33.3937C46.1782 32.9708 45.4993 32.7589 44.6702 32.7589Z" fill="black"/>
<path d="M48.9485 32.7589H48.27V38.2028H48.9485V32.7589Z" fill="black"/>
<path d="M55.1691 35.4913C55.1691 34.6833 54.9053 34.0485 54.34 33.5102C53.7559 32.9136 53.1335 32.6636 52.361 32.6636C51.5693 32.6636 50.9474 32.9136 50.4199 33.5102L50.8347 33.9335C51.2494 33.5102 51.7773 33.2983 52.3614 33.2983C52.9834 33.2983 53.5113 33.5102 53.926 33.9335C54.2842 34.3568 54.4914 34.8952 54.4914 35.4917C54.4914 36.0687 54.2842 36.607 53.8695 37.0303C53.4543 37.4536 52.9268 37.6651 52.3614 37.6651C51.7773 37.6651 51.306 37.4536 50.8912 37.0303C50.4765 36.607 50.2693 36.0687 50.2693 35.4917C50.2693 34.8952 50.4765 34.3568 50.8347 33.9335L50.4199 33.5102C49.8354 34.0485 49.5717 34.6833 49.5717 35.4913C49.5717 36.2797 49.8354 36.9722 50.4199 37.5105C50.9474 38.0493 51.5693 38.3185 52.361 38.3185C53.1335 38.3185 53.812 38.0493 54.34 37.5105C54.9053 36.9726 55.1691 36.2801 55.1691 35.4913Z" fill="black"/>
<path d="M61.9734 34.144L62.4443 33.7203C61.8602 33.0278 61.1813 32.6622 60.2956 32.6622C59.5231 32.6622 58.882 32.9123 58.3166 33.5088C57.7891 34.0472 57.5254 34.6819 57.5254 35.4899C57.5254 36.2783 57.7891 36.9326 58.3166 37.4519C58.8441 38.0484 59.4665 38.3176 60.2016 38.3176C60.9367 38.3176 61.5582 38.0484 62.0299 37.5669C62.5009 37.0863 62.765 36.4516 62.765 35.7013V35.4899H60.6163V36.0669H62.0299L61.4454 37.2591L60.2394 37.7401C59.6737 37.7401 59.2023 37.5092 58.788 37.0281C58.3736 36.5471 58.1473 36.0665 58.1473 35.4895C58.1473 34.8929 58.3732 34.3546 58.788 33.9313C59.2027 33.4502 59.7307 33.2384 60.296 33.2384C60.9741 33.2397 61.5582 33.567 61.9734 34.144Z" fill="black"/>
<path d="M63.3293 32.7589V38.2028H64.0083V35.587H66.5717V38.2028H67.1933V32.7589H66.5717V34.9518H64.0083V32.7589H63.3293Z" fill="black"/>
<path d="M68.8148 38.2028V32.7589H68.1362V38.2028H68.8148Z" fill="black"/>
<path d="M70.4358 32.7589H69.7573V38.2028H71.0199L72.3208 37.895C72.6977 37.6254 72.9049 37.183 72.9049 36.7024L72.5845 35.798C72.3774 35.5288 72.1136 35.3747 71.812 35.3174V35.2792C72.1702 35.106 72.3774 34.7404 72.3774 34.2594C72.3769 33.24 71.755 32.7589 70.4358 32.7589V33.3554H70.6051C71.3777 33.3554 71.755 33.6633 71.755 34.2594C71.755 34.8364 71.3777 35.1633 70.6051 35.1633H70.4358V35.7021H70.8693C71.7554 35.7021 72.2263 36.0099 72.2263 36.6637C72.2263 37.2985 71.8116 37.6254 70.9633 37.6254H70.4358V35.7021V35.1633V33.3554" fill="black"/>
<path d="M73.6395 38.2028H75.9388V37.5681H74.2615V32.7589H73.6395V38.2028Z" fill="black"/>
<path d="M76.9764 38.2028V32.7589H76.298V38.2028H76.9764Z" fill="black"/>
<path d="M32.2361 23.7383V24.6036H36.1191C35.7418 25.662 35.1198 26.6233 34.272 27.4699C33.4991 28.2778 32.7074 28.8166 31.8213 29.1245L32.3492 29.8365C33.3859 29.3936 34.3847 28.6629 35.327 27.5281L37.6263 29.8751L38.3052 29.1245L35.7983 26.8929C36.4769 25.9312 37.0044 24.8736 37.2681 23.7383H32.2361Z" fill="black"/>
<path d="M40.9239 25.0847H43.5435C43.3742 25.8736 43.0726 26.5274 42.6391 27.1044L40.9239 25.989L40.3394 26.566L42.0737 27.7391C41.131 28.5471 40.0756 29.0863 38.8883 29.2973L39.3592 30.048C42.3375 29.3555 44.1093 27.4322 44.5802 24.3349H41.3948L41.8095 23.5269L40.9239 23.3151C40.3964 24.7 39.5673 25.7194 38.417 26.2969L38.9823 26.9507L40.9239 25.0847Z" fill="black"/>
<path d="M51.0086 25.1234L50.1603 24.7578C49.6894 26.2005 49.1236 27.2586 48.3511 27.8551C47.6725 28.4321 46.5605 28.759 45.1656 28.8745L45.3728 29.7789C46.994 29.6056 48.1813 29.1246 49.0862 28.3939C49.8021 27.701 50.4428 26.6238 51.0086 25.1234Z" fill="black"/>
<path d="M51.3296 24.1614L50.9719 23.0452L50.3308 23.1611L50.7451 24.3342L51.3296 24.1614Z" fill="black"/>
<path d="M45.0513 25.3342L44.731 26.1422L46.8231 26.9884L47.1434 26.1422L45.0513 25.3342Z" fill="black"/>
<path d="M45.6742 23.6416L45.316 24.43C46.0516 24.6415 46.7296 24.9106 47.4082 25.2376L47.7663 24.43L45.6742 23.6416Z" fill="black"/>
<path d="M49.2935 23.257L49.6512 24.4883L50.2736 24.3342L49.9154 23.1029L49.2935 23.257Z" fill="black"/>
<path d="M59.3197 23.6416L58.9611 24.43C59.64 24.6028 60.3181 24.8729 60.9966 25.2376L61.4118 24.43L59.3197 23.6416Z" fill="black"/>
<path d="M58.6991 25.3342L58.3409 26.1422L60.433 26.9884L60.7912 26.1422C60.3764 25.873 59.6979 25.6034 58.6991 25.3342Z" fill="black"/>
<path d="M64.6157 25.1234L63.8244 24.7578C63.3531 26.2005 62.7311 27.2586 61.9961 27.8551C61.3175 28.4321 60.2243 28.759 58.8107 28.8745L59.0178 29.7789C60.639 29.6056 61.845 29.1246 62.6746 28.3939C63.4662 27.701 64.0882 26.6238 64.6157 25.1234Z" fill="black"/>
<path d="M64.3527 24.3342L64.9747 24.1614L64.6165 23.0452L63.9758 23.1611L64.3527 24.3342Z" fill="black"/>
<path d="M63.2962 24.4883L63.9373 24.3342L63.5604 23.1029L62.9385 23.257L63.2962 24.4883Z" fill="black"/>
<path d="M71.986 23.9488L71.6657 22.8907L71.0438 23.0444L71.3641 24.122L71.986 23.9488Z" fill="black"/>
<path d="M70.6848 24.0647L70.9298 24.007L70.6282 22.9485L69.9497 23.1022L70.2513 24.0643H65.5017V24.9104H70.2134C70.0441 26.3532 69.4783 27.4689 68.4795 28.1805L66.1236 29.0267L66.5946 29.8733C69.4783 29.2381 70.986 27.3148 71.1374 24.0638H70.6848" fill="black"/>
<path d="M77.3759 23.5261H76.4711V26.7771C76.4711 27.7006 76.1695 28.3353 75.5476 28.7009L73.1348 29.1815L73.3989 30.0472L75.1703 29.7203L76.2635 29.1815C76.9986 28.6045 77.3755 27.7006 77.3755 26.4115V23.5261" fill="black"/>
<path d="M73.6076 23.6416H72.7589V27.7969H73.6076V23.6416Z" fill="black"/>
<path d="M51.6487 24.6024V25.4486H54.8341C54.2496 26.5257 53.2129 27.5842 51.6861 28.6609L52.1575 29.3921C53.2129 28.6996 54.0424 27.9111 54.6831 27.1032L55.3429 26.1415V29.9313H56.1911V25.4486H57.8685V24.6024H56.1345V23.3716H55.3429V24.6024H51.6487Z" fill="black"/>
<path d="M85.0807 31.3164V31.2207H23.9001V31.3164H85.0807Z" fill="black"/>
<path d="M24.5781 11.6181V11.522H23.8996L23.7485 11.6181V11.6757L24.1067 11.6181L24.4836 11.6757L24.5781 11.6181Z" fill="black"/>
<path d="M16.116 18.6203L16.0594 18.5625V18.4089L16.0032 18.2356V18.1397L15.9088 17.9278L15.8522 17.7546L15.7956 17.7164V17.6009L15.739 17.5431L15.645 17.3313L15.5885 17.2931L15.494 17.1198L15.3813 17.0235L14.5518 16.7543L13.8545 16.812L13.4963 16.9275L13.2326 17.1198L13.1756 17.2353L13.1382 17.2931L13.0816 17.4085L13.0254 17.4472V17.5049L12.9688 17.5431V17.6009L12.931 17.6586V17.8123L12.8744 17.9278V18.0819L12.8178 18.197V18.2934H12.7612V18.5625L12.7047 18.7167L12.6102 18.8317V18.8895H12.6672L12.7612 19.0436V19.5246H12.8178V19.5824L12.8744 19.6779V19.7356L12.9688 19.8902L13.0816 19.7938V19.7356L13.0254 19.6401V19.4283L12.9688 19.3705V18.6203L13.0254 18.5625V18.4662H13.0816V18.0242L13.1382 17.9855V17.8123L13.1756 17.7546V17.6009H13.2326L13.3453 17.4085L13.4398 17.2931L14.288 16.9657L14.7968 17.0235L15.1171 17.1776L15.3247 17.4085H15.3813V17.4472L15.5319 17.7546L15.5885 17.8123V17.8892L15.645 17.9855L15.7016 18.0242L15.739 18.197V18.2356L15.7956 18.2934V18.4662L15.8522 18.5048V18.7167L15.9088 18.9476V19.1973L15.8522 19.3132L15.739 19.4665L15.645 19.5246L15.3813 19.7356L15.1171 19.8902L14.4956 20.1594L14.1749 20.2171L13.6095 20.1207L13.4398 20.063H13.4019L13.2892 19.9479L13.1382 19.8516L13.0816 19.7938L12.9688 19.8902L13.4398 20.2749L13.7601 20.3708L14.1749 20.4286L14.9665 20.2171L15.5319 19.8902L15.9088 19.5824L16.0032 19.4283L16.0594 19.3705H16.3797L16.4176 19.255L16.267 19.1586L16.173 19.0436L16.116 18.9476V18.6203Z" fill="black"/>
<path d="M9.83911 17.9867V18.0253L9.93355 18.0831L9.99014 17.9867V17.9289L10.0467 17.8134V17.7175L10.1029 17.602V17.5061L10.1595 17.3324V17.2942L10.1029 17.2365L10.0467 17.2942V17.3324H9.99014V17.5061H9.93355V17.7175H9.89569V17.7557L9.83911 17.9867Z" fill="black"/>
<path d="M10.3671 17.755H10.1978L10.1599 17.8893L10.1978 17.9855H10.3109L10.3671 17.8893V17.755Z" fill="black"/>
<path d="M10.6128 17.9283H10.4618V17.986L10.5754 18.0821L10.6128 18.0245V17.9283Z" fill="black"/>
<path d="M10.9335 18.0237H10.839L10.7825 18.1389L10.839 18.1961L10.9335 18.2346L10.9896 18.1961V18.0813L10.9335 18.0237Z" fill="black"/>
<path d="M13.2316 18.5043V19.0431L13.2881 19.1004L13.4387 19.3127H13.7025L13.8156 19.2545L13.9101 19.1004V18.4083L13.7591 18.562L13.8156 18.6198L13.7591 18.7162L13.7025 18.6775V18.562H13.7591L13.9101 18.4083L13.8535 18.2351L13.8156 18.1392L13.7025 18.0237L13.4953 18.0814L13.2881 18.2929V18.4083L13.2316 18.5043Z" fill="black"/>
<path d="M8.01048 20.0061V19.9488L7.95433 19.8524L7.80331 19.7365L7.48299 19.7946L7.42641 19.891L7.37026 19.9488V20.0638L7.3324 20.1215L7.53957 20.2179L7.95433 20.1215L8.01048 20.0061Z" fill="black"/>
<path d="M13.7028 22.0833L13.6462 22.256V22.2947L13.816 22.4675L14.0231 22.2947L13.9666 22.256L15.1164 22.2947V22.3524H14.2873L14.0231 22.2947L13.816 22.4675L14.4949 22.5639L19.1879 22.8908L19.5082 22.9872H19.8286L20.8653 23.1986H21.129L21.1856 23.1604L21.0724 22.9872L20.2999 22.833L19.5648 22.7753L19.0935 22.6794L13.7028 22.0833Z" fill="black"/>
<path d="M12.6666 23.1606H11.9877L12.0255 23.1989L12.2893 23.3721L13.4013 23.468L14.495 23.7376V23.6413L14.3248 23.468L13.816 23.4298L13.3447 23.2566L12.6666 23.1606Z" fill="black"/>
<path d="M21.186 25.1795V25.0836L21.0729 24.9681L20.8087 24.8144L20.7713 25.0258V25.0836H20.2433L19.3955 24.8144L19.0939 24.7566L16.4173 23.9487L16.1727 23.8527L16.5875 23.9105L17.2655 24.1219H17.5106L20.5075 24.9103L20.7713 25.0258L20.8087 24.8144L19.1505 24.3911L18.8302 24.2756L13.6467 23.0443L13.4961 22.987L13.0252 22.8906H12.8176L12.4594 22.7751L11.9315 22.8329L11.8749 22.8906L11.9315 22.987L12.0825 22.8906L12.3462 22.987L13.0252 23.1021L13.4016 23.2562L14.5889 23.4294L14.6459 23.4676L15.0607 23.5835L14.9097 23.6409L14.7965 23.795H14.8531L19.5087 25.0836L20.8087 25.2954L21.186 25.1795Z" fill="black"/>
<path d="M7.59669 24.2183V24.1222L7.48353 24.007L7.21979 24.0646L7.16321 24.1222V24.1607L7.59669 24.2183Z" fill="black"/>
<path d="M13.402 24.8733V25.0847L13.6096 25.2384L13.7602 25.0847L13.6096 24.9692L13.647 24.9115L14.2881 25.1234H14.3821L16.8515 26.2005L17.0021 26.2583L17.7372 26.6811V26.7389H17.6806L14.3821 25.3348L14.1749 25.2966L13.7602 25.0847L13.6096 25.2384L16.4742 26.3542L16.5312 26.412L16.8515 26.5661L17.1153 26.6238L18.095 27.0467L18.2647 27.1044L18.5663 27.1622L18.6233 27.1044L18.4157 26.9507L18.2081 26.7389L17.1153 26.0464L16.795 25.9313L16.5878 25.8159L13.9112 24.8156L13.4964 24.7578L13.402 24.8733Z" fill="black"/>
<path d="M11.4611 28.3352L11.4045 28.2775L11.2539 28.2197H11.1407L11.1973 28.4312L11.5177 28.604L11.6682 28.7003L11.8188 28.7581L11.8754 28.8736V28.9122L12.2336 29.0854L12.4599 29.2391H12.4973L12.6105 29.3928L12.7049 29.6043V29.6815L12.8185 29.7202L12.9691 29.8739L13.1384 29.9894L13.2329 30.2008L13.2894 30.2585H13.346L13.4966 30.47L13.9675 30.9506V31.0083L14.0241 31.047V31.1242L14.1185 31.2206V31.2588L14.2317 31.3743V31.4325L14.2887 31.4902L14.3261 31.6439L14.3827 31.7017L14.4393 31.9709V32.0672L14.4963 32.2787V32.3942L14.5529 32.4905L14.6473 32.606L14.7039 32.7024V32.7602L14.8545 32.9138V32.9716L14.9111 33.0293V33.183L14.9676 33.2985L15.0242 33.4522V33.6641L15.4951 34.2024L15.533 34.4716V35.4333L15.5896 35.5297V35.6456L15.6462 35.7033V36.0111L15.5896 36.0689V36.1844L15.7967 36.3381V36.4535L15.7402 36.6072V36.8187L15.7967 36.8764L15.9099 36.665V36.6072L15.9478 36.5495V36.3958L15.8533 36.2803L15.9099 35.9725H15.8533V35.6456L15.7967 35.4919V35.1068L15.7402 34.7412V34.6835L15.7967 34.568V34.2024L15.2692 33.6641C15.2314 33.6254 15.1748 33.5677 15.2314 33.4522L15.1748 33.183V33.1448L15.1182 33.0289V32.9134L15.0617 32.8748L15.0238 32.7593L14.8545 32.6056V32.5479L14.7975 32.4901L14.76 32.3937L14.7035 32.1823V32.1246L14.6469 32.0091V31.7395L14.5899 31.6435V31.6049H14.5525V31.4894L14.4959 31.4316L14.3823 31.2584L14.3257 31.162L14.2313 31.0465V31.0079L14.1747 30.9502V30.8937L14.0241 30.7782V30.7396L13.6093 30.3163L13.5528 30.2008L13.289 29.9316L13.1759 29.7779V29.7202L13.1384 29.6815H13.0818L12.9687 29.5661L12.8743 29.3928V29.2964L12.7611 29.181L12.7041 29.085L12.6097 29.0268L12.1387 28.8731L11.9881 28.7576H12.026V28.6621L11.8754 28.5466L11.4611 28.3352Z" fill="black"/>
<path d="M6.74844 32.6054C6.59742 32.5477 6.38983 32.6054 6.12608 32.8169L6.01292 32.9133L5.71132 33.0287L5.44757 33.2979L4.92007 33.6639L4.86349 33.7794L4.59932 34.0486L4.56189 34.145L4.50488 34.2027V34.3182L4.59932 34.4146L5.44757 34.3568L5.74918 34.3182H5.91849L6.06908 34.4146L6.21967 34.5683L6.42684 34.7411L6.53999 34.8948L6.69059 35.0484L6.74759 35.1639L6.86075 35.2799L6.89818 35.3758V35.4335L7.01176 35.5299L7.06834 35.7032L7.12492 35.7609L7.42653 35.9146L7.53968 35.7987H7.59626V35.0102H7.63412V34.7988L7.6907 34.7411V34.6256L7.63412 34.5292V34.3178L7.59626 34.145V33.9913H7.53968V33.8376L7.48311 33.7798L7.36995 33.8376L7.42653 34.1454V34.4723L7.48311 34.626V34.8952H7.42653V35.4917L7.36995 35.5881L7.27551 35.6458L7.12492 35.4922V35.434L7.06834 35.3762V35.2803L6.95518 35.1644L6.80459 34.9529L6.74801 34.8952L6.69101 34.7988V34.7411L6.59657 34.6256L6.48342 34.5678L6.42684 34.5292L6.38898 34.4137L6.12523 34.26L5.65431 34.0486L5.33399 34.145H4.9758V33.9913L5.65431 33.5107L5.8049 33.2988L6.654 32.8169L6.80459 32.8746L6.86117 32.9133L6.95561 32.971L7.01219 33.0865L7.06877 33.1447L7.12534 33.2406L7.1632 33.2984V33.3947H7.21978V33.5107L7.27636 33.5684V33.6648H7.33294V33.7803L7.3708 33.838L7.48396 33.7803V33.6266L7.42738 33.5111L7.3708 33.3574V33.2992L7.33294 33.1455V33.0861L7.27636 33.0283V32.9706L7.21978 32.9128L6.95604 32.7014L6.74844 32.6054Z" fill="black"/>
<path d="M12.3456 37.0865V37.0288L12.289 36.971V36.9328L11.8181 36.4518L11.6109 36.394L11.3472 36.4518L10.8762 36.7019L10.518 37.0865V37.1829L10.2539 37.4521L10.0467 37.6249L9.99013 37.7408L9.93355 37.7794L9.83911 37.9331V38.0491L9.89569 38.1068L10.461 38.2032H11.0834V38.0495L10.7248 37.9913H10.1973L10.1594 37.8954V37.7799L10.1973 37.7412L10.3105 37.664L10.367 37.6253L10.6686 37.3561L10.7252 37.2984L10.9328 37.0292L11.046 36.9715C11.1966 36.8178 11.3476 36.7023 11.5169 36.6637H11.7806L12.0257 36.9333L12.1388 37.087V37.1833H12.1954V37.2988L12.2333 37.4143V37.5107L12.2898 38.0495V38.1454H12.3464V38.4728L12.4034 38.6265V38.7993L12.3464 38.8379H12.1392L11.8189 38.5301V38.4724H11.7811L11.6118 38.3187L11.5552 38.2032H11.5173L11.0838 38.0495V38.2032V38.2609H11.1404L11.4042 38.3573L11.5547 38.5301L11.6679 38.6838H11.7245L11.8189 38.8375L11.9321 38.953L12.2903 39.0685L12.5544 39.0107L12.6106 38.8952V38.7415L12.5544 38.4724V38.2032L12.4974 37.9336V37.6644L12.46 37.4143V37.2988L12.4034 37.2602V37.1447L12.3456 37.0865Z" fill="black"/>
<path d="M31.1751 15.8513L31.7405 16.2169L31.8532 16.3706L32.0608 16.5438L31.8532 16.7553V16.8516L32.174 16.9667L32.2684 17.0631V17.1208L32.3811 17.2363L32.4186 17.3323L32.5321 17.4095L32.5887 17.5059L32.6823 17.6596L32.7393 17.7174L32.8525 17.8901V18.0829H32.7959L32.7393 18.198V18.2366L32.8525 18.3712L32.9469 18.5058V18.5635L33.2107 18.8327L33.3234 18.9868V19.0446L33.4178 19.256V19.4674L33.4744 19.5256L33.531 19.6411V19.6789H33.5684V19.9489L33.6816 20.1604V20.2181L33.7382 20.3332L33.7952 20.3718V20.4873L33.8326 20.6023L33.9453 20.7565V20.8142L34.0019 20.9102L34.0398 20.9679V21.122H34.0963V21.2371L34.1529 21.3912V21.5067H34.2091V21.6031L34.2661 21.7186L34.3035 21.7763V21.8145L34.3605 21.8723L34.4171 22.0264L34.4733 22.1414L34.5107 22.1992L34.5673 22.2956V22.3533L34.6243 22.507V22.5647L34.6808 22.7762L34.7374 22.8917V22.988L34.7749 23.1613V23.2572H34.8314V23.4305L34.9446 23.6419V23.9115H34.9825V24.0075H35.1896V23.9115H35.1518V23.7383H35.0952V23.6419L35.039 23.5846V23.315L34.9825 23.1995L34.9446 23.1613V22.988L34.888 22.7762V22.6802L34.8314 22.5647V22.507L34.7749 22.4684V22.3533L34.7374 22.2956L34.6808 22.1414V22.0841H34.6243V21.9877L34.5673 21.93V21.8145L34.5107 21.7763L34.4171 21.4494V21.3912L34.3605 21.3335L34.3035 21.2371V21.1798L34.1529 20.8529V20.7565L34.0963 20.6987L34.0398 20.545V20.4873L34.0019 20.4295L33.9453 20.3332V20.2181L33.8887 20.1604L33.7952 19.9489V19.8525H33.7382V19.7366L33.6816 19.5834V19.4674L33.625 19.4292V19.3715L33.5684 19.256V19.1983L33.531 19.1019V18.9868L33.4744 18.9486L33.4178 18.8327L33.3234 18.679L33.2668 18.5635L33.1162 18.4098L33.1541 18.2943V18.1407L33.1162 17.9865L33.0596 17.8901H33.0031V17.7556H32.9469L32.8903 17.6596L32.7393 17.4482L32.6823 17.3323L32.4756 17.0244L32.4186 16.9667V16.9285L32.325 16.7553L32.2684 16.6975V16.5825L32.2114 16.5438L32.1169 16.3706L32.0608 16.2746L31.7966 16.0055L31.646 15.7936H31.5895L31.3823 15.6204L31.1185 15.7354L31.1751 15.8513Z" fill="black"/>
<path d="M13.7031 8.79109L13.6091 8.69515V8.6374L13.5525 8.57966L13.4393 8.52192L13.3449 8.6374L13.4393 8.75245L13.5525 9.06027V9.27214H13.4959V9.33032L13.4393 9.38763L13.3449 9.54132L13.0811 9.44537L13.025 9.33032L12.9305 9.23394V9.17576L12.874 9.06027V9.00296H12.9305V8.84884L12.9684 8.79109L13.025 8.69515L13.3449 8.6374L13.4393 8.52192L13.2321 8.48328H13.025L12.874 8.57966L12.8174 8.6374L12.7042 8.79109V9.23394L12.7608 9.38763L12.8174 9.44537L12.874 9.54132L13.025 9.5995L13.4393 9.65637L13.4959 9.54132L13.6465 9.38763L13.7031 9.23394V8.79109Z" fill="black"/>
<path d="M28.4988 0.211869V0.577431L28.5554 0.731123L28.6124 0.788866L28.6689 0.904352V1.11622L28.7068 1.26991V1.42361L28.7634 1.53953V2.02014H28.82V2.34706L28.8765 2.38527V2.50119L28.9331 2.55893V2.82811H28.971V3.55967L29.0276 3.61741V3.7329L29.0841 3.88659V4.3672L29.1407 4.48269V4.63638L29.1786 4.69412L29.1407 4.73276L29.1786 4.84825V5.27155H29.2351V5.96447L29.2917 6.38734V7.25305L29.2351 7.34944V8.42658L29.1786 8.48433L29.2351 8.58071V8.79215H29.1786V9.17681L29.1407 9.27319V9.38911L29.0841 9.48506V9.65786L28.4056 9.92747C28.2359 9.96611 28.0849 10.0239 27.9904 10.0812L27.4629 10.1775L26.992 10.62V11.0433L26.9354 11.101V11.1974L26.8789 11.582L26.7844 11.7357L26.7278 11.8899L26.6713 11.9472L26.6147 12.0631V12.1595L26.5768 12.2172V12.3709L26.6713 12.4287L26.8406 12.3132L26.8784 12.2745V12.159L27.1422 12.2168L27.6697 12.486C28.141 12.7551 28.4613 12.9093 28.5554 12.9093L28.6689 12.967L29.1399 13.1207L29.4415 13.2744L29.7618 13.5054V13.6018H29.498L29.4036 13.7172L30.1761 14.1405L30.7985 14.6212V14.6789L30.7606 14.7175L30.3267 14.6212L30.1761 14.7175L30.3837 14.833C30.6475 14.8908 30.9112 15.0063 31.0622 15.1604L31.5897 15.6796L31.7969 15.8524L31.9475 16.0639H32.0041L31.9475 15.8906L31.4766 15.41L31.4387 15.1604L31.3256 15.1026L31.2311 14.8908L30.9674 14.5061L30.2893 13.9269L30.2323 13.8692L30.3267 13.7537V13.6573L30.0251 13.4463L29.8558 13.2731L29.4976 13.023L28.0274 12.4847L27.5187 12.1577V12.0614L27.8768 12.1H28.141V12.0036L28.084 11.9454L27.4621 11.8304L27.1983 11.619L27.2549 11.5799L27.7258 11.6767H27.8764L28.3473 11.7922H28.4979L28.6115 11.734L28.5545 11.619L27.5557 11.4071L27.2541 11.3107L27.3106 11.253L27.4051 11.1952L27.9892 11.253L28.8753 11.5226L29.2334 11.6763L29.3466 11.6185V11.5221L29.29 11.464L28.9697 11.2525L28.4984 11.137L27.3115 10.9838L27.2549 10.926L27.3115 10.8874H27.5565L28.0274 10.8297H28.8191V10.7719L28.3478 10.6564H27.4055L27.3489 10.6178L27.6693 10.445L28.2346 10.2336L28.7625 10.1372L29.1394 9.92573V9.86756L29.3466 9.54063V9.32963L29.4032 9.27146V7.7328L29.441 7.61688L29.4032 7.52093L29.441 7.25132V5.69312H29.4032V5.11612L29.3466 4.69282V4.42364L29.29 4.15446V3.88529H29.2334V3.67385L29.1769 3.55836V3.40424L29.139 3.25055V2.3844L29.0824 2.34619V2.02014L29.0259 1.90422V1.75096L28.9693 1.69278V1.32766L28.9323 1.26948V1.05804L28.8757 1.0003V0.942558L28.8191 0.846175V0.788866L28.5549 0.0382061L28.4048 0L28.0274 0.0963833L27.933 0.211869L27.8764 0.307819L27.8198 0.365996L27.7258 0.519688L27.5187 1.0003L27.4055 1.11622L27.3115 1.32766L27.2549 1.3854L26.9346 1.8087L26.878 1.90465L26.7274 2.07788V2.17383L26.6143 2.28932L26.2561 2.9818L26.1991 3.13549L26.1425 3.19324L26.1046 3.30916L26.0481 3.46285L25.9349 3.55923L25.897 3.67472L25.8405 3.73246L25.7273 3.9439V4.00164L25.6894 4.04028L25.5763 4.3672L25.4631 4.42494V4.48269L25.3687 4.69412L25.3121 4.73276L25.2555 4.84825V4.90599L25.2177 5.05968V5.11743L25.1611 5.1756V5.27155L25.1045 5.32973V5.48342L25.0479 5.59934V5.75304L24.8408 6.17591V6.23408L24.7842 6.29183L24.5766 6.61875L24.52 6.77244L24.4822 6.83018L24.4256 7.04162L24.275 7.25305L24.218 7.46492L24.1635 7.5218L24.107 7.61775L24.0125 7.79098L23.9559 7.82962V7.88736L23.8994 8.00284V8.09923L23.9559 8.48389L24.3141 8.96451L24.4834 9.1182V9.17594H24.5213L24.5779 9.33007L24.7476 9.59925V9.86799L24.5779 9.81068L24.3707 9.59925L23.5416 9.1182L23.2779 9.38781L24.2201 10.0803L24.4839 10.4072L24.5783 10.5036L24.6919 10.5613L24.7485 10.4459L24.4277 10.138L24.0129 9.81112L23.7492 9.5415V9.48376L23.6926 9.44555L23.9564 9.59925L24.0699 9.71473L24.2771 9.86842L24.3146 9.9266L24.5783 10.0803L24.6919 10.1767L24.7485 10.2922V10.4459L24.6919 10.5613L24.7485 10.6191V10.7728H24.6919L24.5221 10.715L23.5986 10.0226L23.3349 10.0803L23.4854 10.234L24.0129 10.5609L24.0699 10.6573L23.9564 10.6187L22.5998 10.4072L22.279 10.2917L21.9774 10.234L21.9208 10.1762H21.0351L20.8088 10.0799V9.92617L20.9786 9.75337L21.5061 9.59968L21.7511 9.5415L21.8077 9.44555L21.6571 9.38781H21.5065L21.3372 9.44555V9.48376L21.2427 9.5415L20.9224 9.59968V9.5415H20.979L21.0734 9.44555H21.3372L21.5065 9.38781L21.9213 9.17594V9.1182H21.7519L21.5069 9.23412L20.9794 9.27232L20.8097 9.17594L20.7157 9.38781H20.6582L20.7148 9.48376V9.71473L20.6582 9.81068L20.6017 10.0799L20.3941 10.1762L19.3952 10.2917L19.3574 10.0803V9.27232L19.3952 9.23412V8.96407L19.4518 8.84859L19.3952 8.79084V8.63715L19.3574 8.57941L19.3008 8.48303L19.3574 8.36754L18.9805 8.1561L18.7729 8.00241L18.7354 7.94467V7.88693L18.6789 7.79054V7.40588L18.7354 7.25175V7.13626L18.7729 7.09762L18.8865 6.86709V6.82845L18.9239 6.71296V6.65522L18.9809 6.61658L19.0375 6.50109V6.3474L19.094 6.28966V6.13596L19.1885 5.7513V5.59761L19.2451 5.44391L19.3016 5.32843V5.27025L19.3961 5.11656V5.00107L19.4527 4.96243V4.84695L19.5092 4.7892V4.73146L19.5658 4.63508L19.6224 4.57733V4.48095L19.6603 4.42321V4.30729L19.7168 4.24998V4.1536L19.7734 4.09542L19.9806 3.67255L20.0937 3.34519L20.1316 3.30699L20.1882 3.19107L20.2448 3.13332L20.3953 2.8255L20.6029 2.59497L20.8667 2.22897L20.9233 2.13302L21.0364 1.96023L21.4512 1.53692L21.5078 1.59466L21.5456 1.69061V1.80653L21.6022 1.86428V2.07571L21.6588 2.2294V2.28758L21.7154 2.44127V2.92232L21.7532 3.03781V3.34563L21.8098 3.46155V4.21177L21.8664 4.30772V4.3659L21.923 4.42364V4.69282L21.9795 4.7892V5.48169L22.0174 5.59761V6.23235L21.9795 6.29009V6.86709L22.0174 6.92483V7.19401L22.074 7.30993V7.40631L22.1306 7.46406V7.88736L21.98 8.21428L21.0377 8.69489L20.8684 8.84859L20.8114 8.96407L20.8684 9.00271V9.1182H20.9815L21.4525 9.00271H21.6596L21.9234 8.96407L21.7541 8.84859H21.3959V8.79084L21.7162 8.63715L22.1876 8.31023L22.225 8.21385L22.3381 7.61731V7.46362L22.2816 7.40588V6.7707L22.225 6.71296V5.69312L22.1876 5.59717V5.11612H22.225L22.1876 5.05838V4.3659L22.1306 4.25041V3.88485L22.074 3.78847V3.73073L22.0174 3.55793V3.34606L21.9795 3.25011V3.07688L21.923 2.9805V2.44171L21.8664 2.28802V2.13519L21.8098 2.01971V1.80827L21.7132 1.59684V1.53909L21.6567 1.42317V1.3854L21.6001 1.26948H21.3363L20.9781 1.65458H20.922V1.75096L20.7714 1.90465L20.6021 2.23158L20.3005 2.55893L20.1307 2.86675L19.9236 3.13593L19.867 3.19367V3.25185L19.8291 3.3478L19.7726 3.55967L19.716 3.61741V3.67515L19.6215 3.82884V4.00164L19.5084 4.09759V4.15577L19.4518 4.25215L19.3952 4.30946V4.42538L19.3574 4.52176V4.63725L19.2442 4.79094V4.84868L19.1876 4.96417V5.00281L19.1498 5.1183L19.0932 5.17647V5.27242L19.0366 5.44565L18.923 5.54203V5.65752L18.8856 5.7539V5.81165L18.829 5.86939V6.13857L18.772 6.23495V6.38864L18.7346 6.44682V6.65826L18.678 6.83105L18.5644 7.04249V7.10023L18.4513 7.3121V7.40848L18.4138 7.58084V7.73497L18.4513 7.83135L18.5079 7.8891V8.00458L18.6214 8.10097L19.2434 8.52427L19.1489 8.79345L18.4138 8.42789L17.9799 8.3124C17.9421 8.27376 17.8855 8.3124 17.8293 8.37014L18.0365 8.52384C18.2058 8.52384 18.3568 8.58158 18.4513 8.69663L18.3007 8.79301L18.2062 8.96581H18.5644L18.8852 9.00445L19.1489 9.11994L19.0923 9.23586L18.6776 9.27406L18.4513 9.33224V9.38998H18.7342L18.8848 9.33224L19.0919 9.38998V9.54367L19.0353 9.65916L18.5074 9.71734L18.4508 9.81372L18.5074 9.87103L18.7337 9.81372L18.9218 9.71734L19.0915 9.75598V9.92877L18.9218 10.0252L18.9788 10.1788V10.2943L18.8282 10.3521L18.7712 10.2366L18.9788 10.1788L18.9218 10.0252L18.6206 10.1788C18.3564 10.2366 18.262 10.2943 18.262 10.3516L17.9416 10.5053L17.8851 10.5631L17.7906 10.5053L17.8285 10.3516V10.1788L17.7906 10.0825L17.2066 9.92877V9.75598L16.9994 9.33267L16.5846 8.79388L16.3204 8.64019L16.1699 8.31327L15.9057 8.04409V7.94771L15.8491 7.88996L15.7925 7.73627L15.4909 7.31297L15.1706 7.04335L14.4921 6.62005V6.50456L14.4351 6.38864L14.3785 6.35044V5.81208L14.3219 5.75434V5.69616L14.2845 5.60021V5.54247L14.2305 5.38661H14.1739V5.27069L14.0799 5.11699L14.0229 5.00151V4.96287L13.7025 4.25128V4.1549L13.646 4.09672L13.6081 3.94303L13.5515 3.88529H13.4009L13.2878 3.94303V4.03941L13.2312 4.09672L13.1742 4.21264V4.36633L13.1368 4.48182V4.69325L13.0802 4.84695V5.27025L12.967 5.38617L12.8726 5.21294L12.6654 4.78964V4.73189L12.6084 4.63551V4.57777L12.5523 4.48139L12.4017 4.30816H12.2881L12.2315 4.42408V4.52046L12.1936 4.63595V4.78964L12.1371 4.90512V5.38617L12.0822 5.5403V5.86722L12.1388 5.92496H12.0822V6.23278H12.1388V6.5597L12.1953 6.61744V6.71383L12.2332 6.82931V7.88779L11.9316 8.52253V8.79171L11.875 8.84945V9.17638L11.9882 9.11863L12.026 9.00315L12.0822 8.96407L12.1388 8.84859L12.1953 8.90633V8.96407L12.0822 9.17551L12.1388 9.27189L12.1953 9.33007H12.2332V9.38781H12.1953L12.1388 9.48376L12.0256 9.5415L11.9878 9.48376V9.1182L11.8746 9.17594H11.8184L11.875 9.33007V9.59925L11.9316 9.71473V10.0226L11.9882 10.1762V10.6187H11.9316V10.9265L11.875 10.9842V11.3111L11.9316 11.4075V11.5803L11.9882 11.6771L12.026 11.9459L12.0826 12.0618L12.1958 12.3696L12.2902 12.4851L12.4038 12.6965L12.1962 12.908L12.0822 13.0612H11.9316L11.781 13.1771L11.7244 13.0612V12.9075L11.6113 12.8498L11.5168 13.0226L11.4037 13.2345V13.2727L11.0834 13.6L10.9889 13.9269L10.8758 14.0229L10.7813 14.1961L10.6677 14.4076L10.6112 14.4462V14.5617L10.5737 14.6194L10.5171 14.7158L10.4036 14.8886V14.9272L10.3657 15.0045L10.1964 15.3119L10.102 15.4083L9.9888 15.5815V15.6197L9.89436 15.8507L9.83779 15.8889L9.78121 16.0048L9.72463 16.0626L9.68677 16.2163L9.63019 16.3317V16.4472L9.57361 16.5436V16.64L9.51703 16.7555V16.8132L9.46046 16.9287V17.0637L9.4226 17.1792V17.2951L9.36602 17.5066V17.603L9.30944 17.7184V17.8912L9.25286 17.9299L9.04569 18.2377L8.8951 18.3723L7.63209 18.7187L7.01016 19.1034V19.1998L6.95358 19.3157L6.89657 19.3735V19.8541L6.95358 19.9505V20.1233L6.85914 20.2769L6.6894 20.7576V20.8153L6.53881 21.0267H6.22019L6.18275 20.969L6.01302 20.9112H5.91858L5.74927 20.969L5.80585 21.0845L5.86243 21.1231L6.27719 21.2386L6.54094 21.335L6.59752 21.4509V21.8742L6.54094 21.932L5.95644 22.0257L4.86359 22.4681V22.5645L4.92017 22.68L6.48436 22.1417L6.59752 22.2571L6.54094 22.3535V22.469L6.48436 22.5077V22.5654L6.42778 22.6809V22.7773L6.38992 22.835V22.9505L6.12618 23.1042L5.95644 23.2566L6.38992 23.1988L6.42778 23.2566L6.48436 23.3725L6.54094 23.5262V23.5844L6.59752 23.6803V23.7385L6.65452 23.9113V23.9499L6.69196 24.0654V24.1232L6.74896 24.1618L6.80554 24.2773L6.74896 24.3928L6.27762 24.4892L6.01387 24.6046L5.91943 24.701V24.9702L5.95729 25.0279L5.91943 25.0857L5.39194 25.8745L5.12819 26.0473L4.86444 26.2974L4.71385 26.4129V26.5666L4.65727 26.6243L4.3931 26.8358L4.29866 26.9895L3.56357 27.7974L3.09265 28.1821L2.82891 28.3358L2.56473 28.4322L2.67831 28.6627L2.15039 29.182L2.03724 29.3552V29.3934L2.09382 29.5666L2.03724 29.6048L1.83007 29.8745L1.73563 29.9899L1.62247 30.2014V30.4706L1.47188 30.6433L1.4153 30.7784L1.32001 30.8934V31.0089L1.26344 31.1248V31.2212L0.886107 31.6059V31.7023L0.584924 32.1256V32.2793L0.528346 32.337V32.4525L0.471343 32.6639V33.0295L0.320751 33.2409L0.264173 33.2987L0.207595 33.395L0.169734 33.5683L0.113156 33.626L0.0565783 33.7797H0.113156V33.8757L0.169734 33.9916V34.1453L0.113156 34.2608V34.4722L0.0565783 34.5686V34.6263L0 34.7418V34.8382L0.0565783 34.8959L0.169734 34.7995V34.569L0.207595 34.5304V34.4149L0.264173 34.3185V33.9916L0.320751 33.8757L0.377329 33.8375L0.471768 33.6647V33.626L0.41519 33.5105L0.471768 33.4524L0.678937 33.145L0.886107 32.914L0.792094 32.7026H0.848672L1.67778 32.337H1.9981L2.35629 32.6062L2.46944 32.7026V32.8167L2.5073 32.8745L2.77105 33.0859H2.97865L3.14796 32.8745V32.759L2.97865 32.8167L2.94079 32.8745L2.77105 32.7017V32.6631L2.67704 32.4903L2.56346 32.3939L2.46902 32.1824L2.41244 32.1247L2.03554 32.0092L1.52676 32.1247L1.32001 32.2784L0.942685 32.4512L0.848672 32.3934V32.2206L0.886107 32.1243H0.942685V32.0092L0.999688 31.8555L1.15028 31.7018L1.20686 31.6054L1.32001 31.49L1.47061 31.4322L1.67778 31.2208L1.88494 31.0476C2.03554 30.9512 2.09211 30.8939 2.14869 30.8939L2.73319 30.5669L2.82763 30.6824V30.8361L2.88421 31.0476V31.259L2.82763 31.5286L2.88421 31.6054V31.7978H2.94079V32.4516L2.97865 32.6631V32.8167L3.14796 32.759L3.18582 32.7013L3.24239 32.6049V32.1243L3.18582 32.0088V31.7392H3.14796V30.6811L3.09138 30.6425V30.527L2.97865 30.3546L2.77105 30.316L2.56388 30.4124L2.5073 30.4701L1.73478 30.8934L1.82922 30.5665V30.4701L1.8858 30.3546L2.30056 30.0468V29.9313H2.14912L2.03596 29.9891L2.09254 29.8736L2.35629 29.604L2.82763 29.2384L2.88421 29.027H2.67704V28.9692L3.14796 28.5459L3.18582 28.3922L3.50614 28.0653L4.18465 27.5847L4.56198 27.2187L4.82573 26.9882L5.24049 26.7381L6.54094 26.1997L7.21988 26.046L7.27646 26.1997L7.37089 26.2575L8.10598 26.4689C8.36973 26.3534 8.52075 26.3534 8.63391 26.4689L9.04867 26.6803L9.369 26.7767L9.63274 26.9882L9.89649 27.161L10.3113 27.5265L10.5754 27.6998L10.8392 27.7961L11.3101 28.1231L11.4607 28.0653L11.3475 27.9116L11.0459 27.7002L10.575 27.4692L9.42515 26.5653L8.48289 26.2575H8.16214C8.0677 26.142 7.95497 26.0847 7.84181 26.0847L7.5402 25.9883L7.01271 25.9306L6.07002 26.0842C5.80628 26.1997 5.59911 26.2957 5.48595 26.3534L5.24092 26.5262L4.97717 26.5649V26.4685L5.44809 26.0452H5.48595L5.71184 25.8724L5.7497 25.776V25.7178L5.91901 25.5641L6.0696 25.2949L6.33335 25.0831L6.38992 24.9676L6.48436 24.8139L6.54094 24.6984L7.01228 24.5447L7.06886 24.487L6.9557 24.3333V24.2178L7.01228 24.1214L6.9557 23.8522L6.8987 23.7945L6.69153 23.3712V23.1016L6.6541 22.9479V22.6787L6.69153 22.5632V22.5055L6.74854 22.4091V22.2936L6.80511 22.255V21.9858L6.86169 21.7744V21.4474L6.80511 21.3315V21.2351L6.86169 21.1196V20.966L6.89913 20.8505V20.8118L6.95613 20.6963L7.01271 20.6386V20.5422L7.06929 20.4267L7.27646 20.2153L7.1633 19.8884L7.12544 19.5228L7.33261 19.1568L7.53978 19.0991L7.84139 19.2528C8.0107 19.2528 8.16171 19.3687 8.3123 19.5224V19.5801L8.48204 19.8879V20.1185L8.51947 20.2149L8.68921 20.1185V19.7334L8.57563 19.5224L8.10471 19.0986L7.8031 18.9449L7.95369 18.829L8.10428 18.7713H8.21744V18.8868H8.42461L8.68878 18.829L8.74536 18.8868V18.9832H9.36729L9.42387 19.1559L9.31072 19.2523L9.68762 19.4256V19.4638L9.63104 19.5219V19.5797C9.68762 19.6374 9.72548 19.6756 9.89479 19.6756L9.93265 19.5797L9.78206 19.426V19.3105H9.83864L9.78206 19.2523L9.57489 18.9449L9.46173 18.829L9.25456 18.7713L9.1044 18.6206V18.4669L9.46258 18.14L9.57574 18.1978H9.6889L9.72676 18.14V17.8899H9.78333V17.6017L9.83991 17.5053V17.4475L9.89649 17.3316V17.1202L9.72718 17.2934V17.4089L9.68847 17.4475L9.63189 17.7167V17.8127L9.57531 17.7549L9.63189 17.659V17.4475L9.68847 17.1779V17.0242L9.72633 16.8514V16.8128L9.78291 16.6973V16.5818L9.83949 16.5432V16.4468L9.93393 16.2163L9.9905 16.1585L10.3108 15.5233L10.3674 15.4847L10.4618 15.2542L10.5188 15.1005L10.6129 14.9272V14.8309H10.6694L10.783 14.5617L10.9336 14.2925L10.9889 14.2348L11.0834 14.0229L11.1965 13.8692L11.3097 13.7537V13.9265L11.3475 14.0225L11.4607 13.8688L11.5551 13.5996L11.6117 13.5418V13.4455H11.781L11.8189 13.5418L11.9882 13.4455L12.2898 13.1181V13.0604L12.497 12.8489L12.9309 12.9067L13.0253 12.8489L12.7046 12.7525L12.6101 12.5411L12.497 12.4256L12.2898 12.0023L12.2332 11.9441V11.8291L12.1953 11.7904V11.675L12.1388 11.5781V9.924H12.0822V9.7512L12.1388 9.71256L12.2894 9.65438L12.4029 9.5389V9.23151H12.4595L12.4029 9.05828V8.84685L12.2894 8.75047L12.1388 8.69272V8.51993L12.4029 8.03931L12.497 7.94293V7.88519L12.554 7.82745L12.497 7.73106V7.67332L12.4595 7.61514V6.71122L12.4029 6.65348V6.49979L12.3459 6.44205V6.34566L12.2894 6.17243V5.38661L12.3459 5.32886V5.05925L12.4029 4.96287V4.79007L12.497 4.90556V4.9633L12.554 5.00194V5.05968L12.6101 5.11743V5.1756L12.6671 5.21381V5.27155L12.7046 5.32973L12.8181 5.65665L12.8747 5.75304L12.9313 5.81078V6.561H12.8747V7.5231H12.9313L13.0257 7.40761H13.0823V6.50326L13.1389 6.34957V6.02265L13.1763 5.65709V5.44565L13.2333 5.38791V5.27199H13.2899V4.63725H13.3465V4.52176L13.4031 4.48312V4.36764H13.4409L13.5541 4.48312L13.6107 4.5795V4.63725L13.6485 4.69499L13.7051 4.79137V4.84912L13.7617 4.90686V4.9646L13.8182 5.1183V5.17647H13.8561V5.27242L13.9127 5.38834V5.44609H13.9693V5.54247L14.0828 5.65796V5.75434H14.1203V6.139L14.1769 6.35044V6.44682L14.2334 6.61962V6.65826L14.3279 6.716L14.441 6.86969L15.1765 7.31253L15.4969 7.61992V7.73584L15.5347 7.83222H15.5913V7.94771L15.6479 8.00545V8.04409L15.7985 8.21688L15.8551 8.31327L15.9116 8.37101L15.9495 8.4865L16.0061 8.52514V8.58288L16.1192 8.75568L16.2698 8.90937L16.4204 9.00575L16.534 9.06349L16.5906 9.17898L16.6846 9.27536L16.7982 9.54454H16.8547V9.66003L16.8926 9.71821L16.9492 9.8719V9.93008L17.0432 10.0265V10.0842L17.4205 10.2379L17.4771 10.4107L17.4205 10.4493L17.364 10.5648L15.5922 11.2573C15.4416 11.315 15.2718 11.3732 15.234 11.411L14.0275 11.9493L13.5 12.3153L13.4056 12.4308H13.349L13.2925 12.5463L13.1789 12.6427L13.1414 12.7582L13.0283 12.8546L12.9338 12.9123V12.9701L12.9717 13.0664L13.1784 12.9701L13.6124 12.5468L14.2913 12.0084L14.3287 12.0661L14.5925 12.0084L15.7423 11.4119L18.8899 10.5079L20.5111 10.4116L23.0179 10.6616H23.1685L23.3757 10.7194L23.4889 10.8349L23.4323 10.9312L23.6394 11.104L23.3757 11.2004V11.3159H23.9032L24.2235 11.3741H24.5251L24.4873 11.1431V11.1045L24.5817 11.0467V11.1431H24.4873L24.5251 11.3741L24.6387 11.47L24.7893 11.5282L24.8459 11.4123V11.1431L24.9025 11.0467V10.8353L24.959 10.7198V10.1815L24.9969 10.0278V9.66177L24.9025 9.45076L24.8459 9.39302L24.7514 9.18115L24.6949 8.96972L24.5813 8.79692L24.3741 8.64323L24.2235 8.37405V8.27767L24.1635 8.1561L24.2201 8.09836V8.04062L24.2771 7.94423L24.3146 7.88649V7.79011L24.5783 7.40544V7.30993L24.6353 7.19401L24.6919 7.13626L24.7863 6.98257L24.8429 6.82888V6.65609L24.9561 6.44465L24.9939 6.29096L25.0505 6.23321L25.2198 5.9254V5.69442L25.3142 5.48299V5.44478L25.3708 5.3293V5.21294L25.4274 5.17474L25.4653 5.05882V4.96243L25.5218 4.84695V4.7892L25.635 4.57777L25.7294 4.48139V4.3659L25.8987 4.15446L25.9366 4.03898V3.94259L26.0498 3.82711L26.2003 3.46155L26.3701 3.30785L26.4075 3.19193V3.13419L26.4641 3.07645L26.5211 2.98006L26.5777 2.82637L26.6721 2.59583L26.7287 2.55719L27.1435 1.90292L27.3115 1.59684L27.4621 1.42361L27.5565 1.21217L27.6697 1.05848L27.7263 0.942992L27.7828 0.904352L27.9334 0.577431L28.0279 0.461945L28.1976 0.211869L28.3482 0.154126L28.4988 0.211869Z" fill="black"/>
<path d="M13.4014 9.11781L13.3448 8.90638L13.1376 8.84863L13.0811 8.90638L13.0249 9.00276L13.0811 9.17555L13.1376 9.27194H13.1751L13.3448 9.23373H13.4014V9.11781Z" fill="black"/>
</svg>
